<svg width="78" height="90" viewBox="0 0 78 90" fill="none" xmlns="http://www.w3.org/2000/svg">
<path d="M17.678 80.3574C13.074 80.3574 9.642 75.1154 9.642 70.6264V12.8574H7.941C3.553 12.8574 0 16.3484 0 20.6574V82.2034C0 86.5104 3.553 90.0004 7.941 90.0004H56.343C60.725 90.0004 64.284 86.5104 64.284 82.2034V80.3574H17.678Z" fill="black"/>
<path d="M54.3715 23.417V0H20.7965C16.4115 0 12.8555 3.491 12.8555 7.8V69.345C12.8555 73.652 16.4125 77.142 20.7965 77.142H69.1995C73.5815 77.142 77.1405 73.652 77.1405 69.345V23.401L54.3715 23.417ZM58.3885 2.756V19.286L74.4595 19.273L58.3885 2.756Z" fill="black"/>
</svg>
