<svg width="1441" height="717" viewBox="0 0 1441 717" fill="none" xmlns="http://www.w3.org/2000/svg">
<path d="M1110 303L1345.5 443.5L1199 528.302L946 386.302L1110 303Z" fill="#145827" fill-opacity="0.22"/>
<path d="M0 0H1441V717H0V0Z" fill="url(#paint0_linear)"/>
<path d="M1206.52 -177.712L1279.92 -38.4119L298.4 478.704L225 339.404L1206.52 -177.712Z" fill="url(#paint1_linear)" fill-opacity="0.3"/>
<path d="M1069.52 -203L1137.27 -74.41L155.748 442.706L88 314.116L1069.52 -203Z" fill="url(#paint2_linear)" fill-opacity="0.3"/>
<path d="M1588.14 -9L1696.74 197.14L790.602 674.543L681.996 468.403L1588.14 -9Z" fill="url(#paint3_linear)" fill-opacity="0.3"/>
<path d="M341.5 716H176.5L745.62 409L785.744 485.16L341.5 716Z" fill="url(#paint4_linear)" fill-opacity="0.3"/>
<path d="M449.951 716H284.951L854.071 409L894.196 485.16L449.951 716Z" fill="url(#paint5_linear)" fill-opacity="0.3"/>
<defs>
<linearGradient id="paint0_linear" x1="340.238" y1="7.58601" x2="1072.78" y2="683.593" gradientUnits="userSpaceOnUse">
<stop stop-color="#10583A"/>
<stop offset="1" stop-color="#145827" stop-opacity="0.65"/>
</linearGradient>
<linearGradient id="paint1_linear" x1="1015.25" y1="-193.901" x2="508.264" y2="470.368" gradientUnits="userSpaceOnUse">
<stop stop-color="#145827"/>
<stop offset="1" stop-color="#145827" stop-opacity="0"/>
</linearGradient>
<linearGradient id="paint2_linear" x1="860.749" y1="-227.315" x2="382.088" y2="442.306" gradientUnits="userSpaceOnUse">
<stop stop-color="#145827"/>
<stop offset="1" stop-color="#145827" stop-opacity="0"/>
</linearGradient>
<linearGradient id="paint3_linear" x1="1494.41" y1="39.057" x2="905.927" y2="605.543" gradientUnits="userSpaceOnUse">
<stop stop-color="#145827"/>
<stop offset="1" stop-color="#145827" stop-opacity="0"/>
</linearGradient>
<linearGradient id="paint4_linear" x1="349.261" y1="773.347" x2="626.451" y2="410.164" gradientUnits="userSpaceOnUse">
<stop stop-color="#145827"/>
<stop offset="1" stop-color="#145827" stop-opacity="0"/>
</linearGradient>
<linearGradient id="paint5_linear" x1="457.712" y1="773.347" x2="734.902" y2="410.164" gradientUnits="userSpaceOnUse">
<stop stop-color="#145827"/>
<stop offset="1" stop-color="#145827" stop-opacity="0.73"/>
</linearGradient>
</defs>
</svg>
