<svg xmlns="http://www.w3.org/2000/svg" xmlns:xlink="http://www.w3.org/1999/xlink">
    <defs>
        <symbol id="icon-arrow" viewBox="0 0 19 8" >
            <path d="M18.354 4.354a.5.5 0 0 0 0-.708L15.172.464a.5.5 0 1 0-.708.708L17.293 4l-2.829 2.828a.5.5 0 1 0 .708.708l3.182-3.182zM0 4.5h18v-1H0v1z"/>
        </symbol>
        <symbol id="icon-copy" viewBox="0 0 78 90" >
            <path d="M17.678 80.357c-4.604 0-8.036-5.242-8.036-9.73v-57.77H7.941c-4.388 0-7.941 3.491-7.941 7.8v61.546C0 86.51 3.553 90 7.941 90h48.402c4.382 0 7.941-3.49 7.941-7.797v-1.846H17.678z" />
            <path d="M54.371 23.417V0H20.796c-4.384 0-7.94 3.491-7.94 7.8v61.545c0 4.307 3.557 7.797 7.94 7.797H69.2c4.382 0 7.94-3.49 7.94-7.797V23.401l-22.769.016zm4.017-20.661v16.53l16.072-.013L58.389 2.756z" />
        </symbol>
        <symbol id="icon-private-key" viewBox="0 0 13 7">
            <path d="M9.589.039a2.697 2.697 0 0 0-2.61 2.03H.858v1.446h.481v1.714h.775v.825h.776V4.679h.775V3.515h3.342A2.696 2.696 0 1 0 9.588.039zm0 1.496a1.2 1.2 0 1 1 0 2.4 1.2 1.2 0 0 1 0-2.4z" fill="#000"/>
        </symbol>
        <symbol id="icon-search"  viewBox="0 0 14 14">
            <path d="M6 11A5 5 0 1 0 6 1a5 5 0 0 0 0 10zM10 10l3 3" stroke="#434849" stroke-width="2" stroke-linecap="round" stroke-linejoin="round"/>
        </symbol>
        <symbol id="icon-minus" fill="none" viewBox="0 0 34 4">
            <path d="M34 2a2 2 0 0 1-2 2H2a2 2 0 1 1 0-4h30a2 2 0 0 1 2 2z" fill="#000"/>
        </symbol>
        <symbol id="icon-cross" fill="none" viewBox="0 0 49 49">
            <path d="M36.203 35.917a2 2 0 0 1-2.828.033l-9.301-9.082-9.083 9.301a2 2 0 0 1-2.861-2.794l9.082-9.301-9.301-9.083a2 2 0 0 1 2.794-2.861l9.301 9.082 9.083-9.301a2 2 0 1 1 2.861 2.794l-9.082 9.301 9.302 9.083a2 2 0 0 1 .033 2.828z" fill="#000"/>
        </symbol>
        <symbol id="icon-plus" fill="none" viewBox="0 0 34 34">
            <path d="M34 17a2 2 0 0 1-2 2H19v13a2 2 0 0 1-4 0V19H2a2 2 0 1 1 0-4h13V2a2 2 0 1 1 4 0v13h13a2 2 0 0 1 2 2z" fill="#000"/>
        </symbol>
        <symbol id="icon-keplr" fill="none" viewBox="0 0 32 32">
            <path d="M0 5a5 5 0 0 1 5-5h22a5 5 0 0 1 5 5v22a5 5 0 0 1-5 5H5a5 5 0 0 1-5-5V5z" fill="#C4C4C4"/>
            <path d="M12.993 6H9v20h3.993v-8.652L21.094 26H26l-9.47-10.337L25.43 6h-4.792l-7.645 8.315V6z" fill="#E5E5E5"/>
        </symbol>
        <symbol id="icon-ledger" fill="none" viewBox="0 0 32 32" >
            <path d="M26.814 0H12.187v19.733h19.749V5.106C31.936 2.304 29.63 0 26.83 0h-.016zM7.627 0H5.106C2.306 0 0 2.306 0 5.106v2.52h7.627V0zM0 12.187h7.627v7.626H0v-7.626zM24.373 31.936h2.521c2.802 0 5.106-2.306 5.106-5.106v-2.456h-7.627v7.562zM12.187 24.373h7.627V32h-7.627v-7.627zM0 24.373v2.521C0 29.694 2.306 32 5.106 32h2.52v-7.627H0z" fill="#C4C4C4"/>
        </symbol>
        <symbol id="icon-keystore" fill="none" viewBox="0 0 32 32">
            <path d="M22.45 14.771c-5.267 0-9.55 3.864-9.55 8.614 0 4.751 4.283 8.615 9.55 8.615 5.266 0 9.55-3.864 9.55-8.614 0-4.751-4.284-8.615-9.55-8.615zm5.674 12.933l-1.838 1.658a.665.665 0 0 1-.456.166.717.717 0 0 1-.455-.166.54.54 0 0 1 0-.815l1.39-1.254-.847-.764-1.247 1.124a.665.665 0 0 1-.455.166.717.717 0 0 1-.456-.166.54.54 0 0 1 0-.814l1.255-1.132-3.02-2.74c-.584.36-1.272.548-1.951.548-.887 0-1.782-.303-2.462-.915-.655-.591-1.015-1.377-1.023-2.206 0-.836.352-1.622 1.008-2.206 1.35-1.218 3.54-1.211 4.899.007 1.198 1.081 1.334 2.747.431 3.958l3.413 3.085c.024.015.048.036.072.058.024.021.04.043.064.065l1.678 1.52c.248.239.248.6 0 .823zM18.462 6.56h3.916L16.384.872V4.68c0 1.03.927 1.881 2.078 1.881z" fill="#C4C4C4"/>
            <path d="M11.964 20.906H5.019c-.352 0-.64-.26-.64-.577 0-.317.288-.577.64-.577h7.369c.407-.937.95-1.73 1.622-2.523H5.019c-.352 0-.64-.26-.64-.577 0-.317.288-.576.64-.576h10.206c1.918-1.514 4.46-2.48 7.232-2.48.264 0 .48.021.8.043V7.713H18.46c-1.854 0-3.356-1.37-3.356-3.034V0H2.845C1.263 0 0 1.168 0 2.602v22.002c0 1.434 1.263 2.573 2.845 2.573h9.63a8.82 8.82 0 0 1-.855-3.806c-.008-.85.12-1.672.344-2.465zM5.019 12.47h8.096c.351 0 .64.26.64.577 0 .317-.289.577-.64.577H5.019c-.352 0-.64-.26-.64-.577 0-.317.288-.577.64-.577z" fill="#C4C4C4"/>
            <path d="M20.012 18.44c-.56 0-1.11.188-1.535.57-.407.367-.639.865-.63 1.391 0 .526.23 1.024.646 1.398.856.772 2.238.78 3.085.008.848-.764.84-2.012-.008-2.783a2.346 2.346 0 0 0-1.558-.584z" fill="#C4C4C4"/>
        </symbol>
        <symbol id="icon-up-arrow" fill="none" viewBox="0 0 12 12">
            <path d="M0 6a6 6 0 1 0 12 0A6 6 0 0 0 0 6zm9.158 1.137l-.896.884L6 5.765 3.738 8.021l-.896-.89L6 3.973l3.158 3.164z"
                  fill="#E50913"/>
        </symbol>
        <symbol id="icon-down-arrow" fill="none" viewBox="0 0 12 12">
            <path d="M12 6A6 6 0 1 0 0 6a6 6 0 0 0 12 0zM2.842 4.863l.896-.884L6 6.235l2.262-2.256.896.89L6 8.027 2.842 4.863z"
                  fill="#8D9CB5" fill-opacity=".48"/>
        </symbol>
        <symbol id="icon-upload" fill="none" viewBox="0 0 96 88">
            <path d="M47.909 88a4 4 0 0 0 4-4V41.66l5.17 5.17a4.003 4.003 0 0 0 5.66-5.66l-12-12a4 4 0 0 0-5.66 0l-12 12a4.002 4.002 0 0 0 5.66 5.66l5.17-5.17V84a4 4 0 0 0 4 4z" fill="#979797"/>
            <path d="M75.849 20.32A22 22 0 0 0 53.909 0c-6.88 0-12.18 2.62-16.13 8h-3.87a22 22 0 0 0-22 21.71 20 20 0 0 0 8 38.29h12a4 4 0 1 0 0-8h-12a12 12 0 0 1-2.81-23.62 4.38 4.38 0 0 0 3-4.82c-.1-.515-.163-1.036-.19-1.56a14 14 0 0 1 14-14h6a4 4 0 0 0 3.42-1.92C45.909 9.82 49.089 8 53.909 8a14 14 0 0 1 14 14v2a4 4 0 0 0 4 4 16 16 0 0 1 0 32h-8a4 4 0 1 0 0 8h8a24 24 0 0 0 3.94-47.68z" fill="#979797"/>
        </symbol>
        <symbol id="icon-plus" fill="none" viewBox="0 0 24 25">
            <path d="M12.067 24.006a2 2 0 0 1-2.005-1.995l-.056-20a2 2 0 0 1 4-.011l.056 20a2 2 0 0 1-1.995 2.006z" fill="#000"/>
            <path d="M24 12a2 2 0 0 1-2 2H2a2 2 0 0 1 0-4h20a2 2 0 0 1 2 2z" fill="#000"/>
        </symbol>
        <symbol id="icon-minus" fill="none" viewBox="0 0 24 4" >
            <path d="M24 2a2 2 0 0 1-2 2H2a2 2 0 0 1 0-4h20a2 2 0 0 1 2 2z" fill="#000"/>
        </symbol>
        <symbol id="icon-dayMode" fill="none" viewBox="0 0 48 55">
            <path d="M21.205.043c1.447-.34 2.455 1.406 1.436 2.488-7.347 7.808-8.807 19.61-3.364 29.038 5.444 9.429 16.394 14.065 26.83 11.606 1.447-.341 2.455 1.405 1.436 2.488a27.495 27.495 0 0 1-6.288 4.972C28.1 58.229 11.283 53.722 3.689 40.569-3.905 27.416.602 10.597 13.755 3.003a27.5 27.5 0 0 1 7.45-2.96z" fill="#5F646C"/>
        </symbol>
        <symbol id="icon-darkMode" fill="none" viewBox="0 0 68 68">
            <path d="M34 48c7.732 0 14-6.268 14-14s-6.268-14-14-14-14 6.268-14 14 6.268 14 14 14z" stroke="#fff" stroke-width="4"/>
            <path d="M34 12V2M34 66V56M56 34h10M2 34h10M49.556 18.444l7.071-7.071M11.372 56.627l7.071-7.07M49.556 49.556l7.071 7.071M11.372 11.373l7.071 7.07" stroke="#fff" stroke-width="4" stroke-linecap="round"/>
        </symbol>
    </defs>
</svg>
