<?xml version="1.0" encoding="UTF-8" standalone="no"?><svg xmlns:svg="http://www.w3.org/2000/svg" xmlns="http://www.w3.org/2000/svg" xmlns:xlink="http://www.w3.org/1999/xlink" version="1.0" width="64px" height="64px" viewBox="0 0 128 128" xml:space="preserve"><g><path d="M105.54 39.9l13.56-6.42s-9.67-26.82-47.05-30.1C31.68-.1 15.25 35.6 15.25 35.6S31.13 9.55 63.6 11.1c32.6 1.53 41.96 28.8 41.96 28.8zm-41.6 72.52l-1.2 14.97s28.15 5.04 49.67-25.7c23.3-33.2.46-65.34.46-65.34s14.7 26.8-2.86 54.13c-17.66 27.5-46.05 21.9-46.05 21.9zm-42.06-72.3L9.52 31.58S-8.96 53.4 6.9 87.42c17.12 36.73 56.38 33.03 56.38 33.03s-30.56-.68-45.46-29.55c-14.96-29 4.06-50.8 4.06-50.8z" fill="#25b0e9"/><animateTransform attributeName="transform" type="rotate" from="0 63.9 64.2" to="120 63.9 64.2" dur="480ms" repeatCount="indefinite"></animateTransform></g></svg>