<svg width="287" height="72" viewBox="0 0 287 72" fill="none" xmlns="http://www.w3.org/2000/svg">
<path d="M276 9.69995V36H267.3V19.9H234.8V9.69995H276Z" fill="white"/>
<path d="M17 18.8999H27.2V51.3999H43.3V59.9999H17V18.8999Z" fill="white"/>
<path d="M85.5004 19V41.9C85.4004 45.9 85.4004 49.8 83.1004 53.5C78.7004 60.6 69.6004 61 67.8004 61C64.7004 61 61.0004 60.2 58.3004 58.8C50.4004 54.7 50.4004 47.5 50.4004 41.9V19H60.8004V44.6C60.8004 46.7 60.9004 48.4 61.6004 49.7C62.9004 51.9 65.7004 52.5 68.2004 52.5C75.2004 52.5 75.2004 47.7 75.2004 44.5V19H85.5004Z" fill="white"/>
<path d="M140.1 18.9999V60.0999H130.3L130.9 30.7999L131 26.6999L130.7 28.1999C130.2 30.4999 130.1 30.7999 129.7 32.5999L122 60.1999H113L105.6 33.7999L103.8 26.4999C104 29.7999 104 30.4999 104.1 34.3999L104.6 60.2999H94.7002V18.9999H109.7L116 41.9999L117.5 48.5999C118.1 45.6999 118.1 45.4999 118.6 43.4999L125.2 18.8999H140.1V18.9999Z" fill="white"/>
<path d="M172 19L187.2 60H176.3L174.3 53.4H159.2L157.2 60H146.3L161.3 19H172ZM166.5 28.7C166 30.8 165.4 32.9 164.8 35C163.9 38.1 162.4 42.9 161.4 46H171.8L166.5 28.7Z" fill="white"/>
<path d="M197.6 47.7C198.6 48.9 199.5 49.8 201.6 50.9C204.3 52.4 207.1 52.9 209.5 52.9C213.6 52.9 217.1 51 217.1 48.1C217.1 44.8 213 44.3 209.9 43.9C207.6 43.6 205.4 43.3 203.2 42.9C200.7 42.4 192.1 40.6 192.1 31.7C192.1 21.1 201.5 18 208.6 18C218.1 18 223.2 22.6 226.8 25.8L219.2 31.2C217.9 29.9 216.8 28.8 215.1 27.9C213.6 27.1 211 26.1 208.4 26.1C204.3 26.1 202.3 28.4 202.3 30.4C202.3 33.5 205.8 34 207.5 34.2C211.9 34.7 217.7 35.8 220.1 36.6C224.8 38.3 227.2 42 227.2 46.7C227.2 49.7 226.1 52.9 223.9 55.4C220.2 59.7 214.2 60.9 208.5 60.9C196.9 60.9 192.3 55.5 189.8 52.6L197.6 47.7Z" fill="white"/>
</svg>
