<svg width="169" height="22" viewBox="0 0 169 22" fill="none" xmlns="http://www.w3.org/2000/svg">
<path d="M4.52249 0.487741V8.55369H12.8502V0.487741H17.3727V21.5142H12.8502V12.4437H4.52249V21.5142H0V0.487741H4.52249ZM26.8445 13.3199V21.5142H31.3706V13.4482L39.0061 0.487741H33.9635L29.1828 8.79933L24.3698 0.487741H19.3022L26.8445 13.3199ZM40.932 0.487741V21.5142H45.4545V13.9762H50.2065C51.3278 14.005 52.4438 13.8094 53.4917 13.4006C54.3259 13.0662 55.0778 12.5479 55.6938 11.8827C56.2583 11.264 56.6821 10.5253 56.9347 9.71958C57.4514 8.09697 57.4514 6.34864 56.9347 4.72603C56.6818 3.9223 56.2594 3.18512 55.6973 2.56655C55.0798 1.90324 54.3283 1.3853 53.4953 1.04869C52.4471 0.641087 51.3311 0.446796 50.2101 0.476742L40.932 0.487741ZM45.4545 10.3869V4.08075H48.9692C49.4712 4.07816 49.9726 4.1174 50.4683 4.19808C50.915 4.2651 51.3448 4.41945 51.7343 4.6527C52.1059 4.88687 52.4093 5.21857 52.613 5.61328C52.8524 6.11595 52.9657 6.67156 52.943 7.23014C52.9657 7.78989 52.8524 8.34669 52.613 8.85066C52.4093 9.24434 52.1058 9.57483 51.7343 9.80757C51.3461 10.0416 50.9175 10.1972 50.4719 10.2659C49.9759 10.3447 49.4747 10.384 48.9728 10.3832L45.4545 10.3869ZM59.2515 0.487741V21.5142H74.8633V17.6279H63.7776V12.4657H73.7407V8.87266H63.7776V4.37406H74.6373V0.487741H59.2515ZM76.7963 0.487741V21.5142H86.7595C87.669 21.5115 88.5743 21.3882 89.4529 21.1476C90.2896 20.9277 91.0805 20.555 91.7876 20.0477C92.471 19.5566 93.0293 18.9054 93.4159 18.1485C93.8349 17.2952 94.0419 16.3495 94.0184 15.3951C94.0521 14.1992 93.7253 13.0217 93.0823 12.022C92.3903 11.0509 91.3817 10.3644 90.2383 10.0862C91.0736 9.70819 91.7944 9.10806 92.3256 8.34837C92.8247 7.56212 93.0751 6.63797 93.0429 5.70127C93.0691 4.85045 92.9073 4.00454 92.5695 3.2265C92.2698 2.57893 91.8068 2.02464 91.2282 1.62064C90.6019 1.19546 89.9 0.900223 89.1624 0.751717C88.2808 0.568205 87.3829 0.479729 86.4833 0.487741H76.7963ZM81.3152 8.99731V4.08075H85.5508C85.9416 4.07906 86.3317 4.11342 86.7164 4.18341C87.0666 4.24286 87.4033 4.3671 87.7099 4.55004C88.0007 4.7266 88.2398 4.97987 88.402 5.28331C88.5887 5.65579 88.6777 6.0714 88.6603 6.48954C88.6603 7.37435 88.4008 8.01351 87.882 8.40703C87.3006 8.82005 86.6024 9.02617 85.8951 8.99365L81.3152 8.99731ZM81.3152 17.9212V12.1467H86.243C87.0844 12.1021 87.9166 12.3431 88.6101 12.8323C89.2006 13.2943 89.4971 14.0642 89.4995 15.1421C89.517 15.6097 89.4248 16.0749 89.2305 16.4986C89.0576 16.8388 88.8035 17.1289 88.4917 17.3419C88.1628 17.5553 87.798 17.7045 87.4158 17.7819C86.9992 17.8695 86.5751 17.9137 86.1498 17.9138L81.3152 17.9212ZM95.9479 0.487741V21.5142H111.563V17.6279H100.478V12.4657H110.444V8.87266H100.478V4.37406H111.337V0.487741H95.9479ZM121.268 0.487741L113.496 21.5142H118.044L119.647 16.8323H127.34L128.896 21.5142H133.591L125.913 0.487741H121.268ZM120.838 13.3859L123.517 5.68661H123.592L126.185 13.3859H120.838ZM138.354 16.3447C138.094 15.7842 137.971 15.1678 137.995 14.5481H133.602C133.556 15.709 133.794 16.8632 134.294 17.9065C134.756 18.8254 135.422 19.6213 136.238 20.231C137.088 20.8554 138.046 21.3106 139.06 21.5729C140.138 21.8589 141.247 22.0018 142.36 21.9981C143.611 22.0198 144.858 21.8517 146.061 21.4995C147.034 21.2142 147.944 20.7385 148.74 20.099C149.441 19.5297 149.999 18.7983 150.368 17.9652C150.738 17.1225 150.925 16.2084 150.917 15.2851C150.96 14.2652 150.704 13.2555 150.182 12.385C149.727 11.6668 149.134 11.0506 148.439 10.5738C147.814 10.1445 147.13 9.81213 146.409 9.58759C145.724 9.38228 145.193 9.23929 144.809 9.15863C143.522 8.82866 142.478 8.55002 141.682 8.33737C141.042 8.18025 140.417 7.96681 139.814 7.69943C139.448 7.5491 139.131 7.29461 138.903 6.96616C138.739 6.65997 138.659 6.31399 138.673 5.96525C138.661 5.57731 138.762 5.19453 138.964 4.86535C139.15 4.57264 139.395 4.32291 139.681 4.13208C139.985 3.93201 140.323 3.79152 140.678 3.71778C141.032 3.64181 141.392 3.6025 141.754 3.60046C142.271 3.59767 142.788 3.64679 143.296 3.74712C143.74 3.83601 144.165 4.00484 144.551 4.24574C144.934 4.48169 145.25 4.81521 145.469 5.21365C145.71 5.69758 145.843 6.22947 145.86 6.77184H150.239C150.266 5.69387 150.028 4.62625 149.547 3.66646C149.109 2.82672 148.482 2.10541 147.718 1.56198C146.921 0.997656 146.026 0.592157 145.082 0.366751C144.068 0.118733 143.029 -0.00435331 141.987 0.00011754C141.054 -0.00235598 140.124 0.120916 139.222 0.366751C138.334 0.606957 137.495 1.0067 136.744 1.54731C136.019 2.07004 135.414 2.7482 134.972 3.53447C134.504 4.39308 134.27 5.36411 134.294 6.34655C134.271 7.19871 134.453 8.04366 134.825 8.80666C135.168 9.46642 135.645 10.0438 136.224 10.5005C136.822 10.9618 137.483 11.3322 138.185 11.6004C138.919 11.8905 139.668 12.1353 140.43 12.3337C141.181 12.5512 141.92 12.7468 142.647 12.9203C143.315 13.0875 143.971 13.3031 144.609 13.5656C145.126 13.7632 145.6 14.0635 146.004 14.4492C146.181 14.6259 146.321 14.8383 146.414 15.0731C146.508 15.3078 146.552 15.5598 146.545 15.813C146.563 16.2854 146.42 16.7493 146.14 17.1256C145.863 17.4737 145.511 17.7511 145.111 17.9358C144.706 18.1331 144.274 18.2666 143.83 18.3318C143.402 18.3984 142.969 18.4327 142.536 18.4345C141.953 18.4382 141.371 18.3642 140.807 18.2145C140.284 18.0854 139.79 17.8565 139.351 17.5399C138.932 17.2271 138.592 16.8176 138.357 16.3447H138.354ZM158.309 4.37406V21.5142H162.835V4.37406H169V0.487741H152.144V4.37406H158.309Z" fill="white"/>
</svg>
