<svg width="130" height="26" viewBox="0 0 130 26" fill="none" xmlns="http://www.w3.org/2000/svg">
    <path d="M9.98007 19.52H4.74007L3.90007 22H0.320068L5.40007 7.95996H9.36007L14.4401 22H10.8201L9.98007 19.52ZM9.10007 16.88L7.36007 11.74L5.64007 16.88H9.10007ZM20.5262 22.16C19.5529 22.16 18.6862 21.9933 17.9262 21.66C17.1662 21.3267 16.5662 20.8733 16.1262 20.3C15.6862 19.7133 15.4395 19.06 15.3862 18.34H18.7662C18.8062 18.7267 18.9862 19.04 19.3062 19.28C19.6262 19.52 20.0195 19.64 20.4862 19.64C20.9129 19.64 21.2395 19.56 21.4662 19.4C21.7062 19.2267 21.8262 19.0067 21.8262 18.74C21.8262 18.42 21.6595 18.1867 21.3262 18.04C20.9929 17.88 20.4529 17.7067 19.7062 17.52C18.9062 17.3333 18.2395 17.14 17.7062 16.94C17.1729 16.7267 16.7129 16.4 16.3262 15.96C15.9395 15.5067 15.7462 14.9 15.7462 14.14C15.7462 13.5 15.9195 12.92 16.2662 12.4C16.6262 11.8667 17.1462 11.4467 17.8262 11.14C18.5195 10.8333 19.3395 10.68 20.2862 10.68C21.6862 10.68 22.7862 11.0267 23.5862 11.72C24.3995 12.4133 24.8662 13.3333 24.9862 14.48H21.8262C21.7729 14.0933 21.5995 13.7867 21.3062 13.56C21.0262 13.3333 20.6529 13.22 20.1862 13.22C19.7862 13.22 19.4795 13.3 19.2662 13.46C19.0529 13.6067 18.9462 13.8133 18.9462 14.08C18.9462 14.4 19.1129 14.64 19.4462 14.8C19.7929 14.96 20.3262 15.12 21.0462 15.28C21.8729 15.4933 22.5462 15.7067 23.0662 15.92C23.5862 16.12 24.0395 16.4533 24.4262 16.92C24.8262 17.3733 25.0329 17.9867 25.0462 18.76C25.0462 19.4133 24.8595 20 24.4862 20.52C24.1262 21.0267 23.5995 21.4267 22.9062 21.72C22.2262 22.0133 21.4329 22.16 20.5262 22.16ZM31.6785 22.16C30.7052 22.16 29.8385 21.9933 29.0785 21.66C28.3185 21.3267 27.7185 20.8733 27.2785 20.3C26.8385 19.7133 26.5919 19.06 26.5385 18.34H29.9185C29.9585 18.7267 30.1385 19.04 30.4585 19.28C30.7785 19.52 31.1719 19.64 31.6385 19.64C32.0652 19.64 32.3919 19.56 32.6185 19.4C32.8585 19.2267 32.9785 19.0067 32.9785 18.74C32.9785 18.42 32.8119 18.1867 32.4785 18.04C32.1452 17.88 31.6052 17.7067 30.8585 17.52C30.0585 17.3333 29.3919 17.14 28.8585 16.94C28.3252 16.7267 27.8652 16.4 27.4785 15.96C27.0919 15.5067 26.8985 14.9 26.8985 14.14C26.8985 13.5 27.0719 12.92 27.4185 12.4C27.7785 11.8667 28.2985 11.4467 28.9785 11.14C29.6719 10.8333 30.4919 10.68 31.4385 10.68C32.8385 10.68 33.9385 11.0267 34.7385 11.72C35.5519 12.4133 36.0185 13.3333 36.1385 14.48H32.9785C32.9252 14.0933 32.7519 13.7867 32.4585 13.56C32.1785 13.3333 31.8052 13.22 31.3385 13.22C30.9385 13.22 30.6319 13.3 30.4185 13.46C30.2052 13.6067 30.0985 13.8133 30.0985 14.08C30.0985 14.4 30.2652 14.64 30.5985 14.8C30.9452 14.96 31.4785 15.12 32.1985 15.28C33.0252 15.4933 33.6985 15.7067 34.2185 15.92C34.7385 16.12 35.1919 16.4533 35.5785 16.92C35.9785 17.3733 36.1852 17.9867 36.1985 18.76C36.1985 19.4133 36.0119 20 35.6385 20.52C35.2785 21.0267 34.7519 21.4267 34.0585 21.72C33.3785 22.0133 32.5852 22.16 31.6785 22.16ZM48.8109 16.24C48.8109 16.56 48.7909 16.8933 48.7509 17.24H41.0109C41.0642 17.9333 41.2842 18.4667 41.6709 18.84C42.0709 19.2 42.5575 19.38 43.1309 19.38C43.9842 19.38 44.5775 19.02 44.9109 18.3H48.5509C48.3642 19.0333 48.0242 19.6933 47.5309 20.28C47.0509 20.8667 46.4442 21.3267 45.7109 21.66C44.9775 21.9933 44.1575 22.16 43.2509 22.16C42.1575 22.16 41.1842 21.9267 40.3309 21.46C39.4775 20.9933 38.8109 20.3267 38.3309 19.46C37.8509 18.5933 37.6109 17.58 37.6109 16.42C37.6109 15.26 37.8442 14.2467 38.3109 13.38C38.7909 12.5133 39.4575 11.8467 40.3109 11.38C41.1642 10.9133 42.1442 10.68 43.2509 10.68C44.3309 10.68 45.2909 10.9067 46.1309 11.36C46.9709 11.8133 47.6242 12.46 48.0909 13.3C48.5709 14.14 48.8109 15.12 48.8109 16.24ZM45.3109 15.34C45.3109 14.7533 45.1109 14.2867 44.7109 13.94C44.3109 13.5933 43.8109 13.42 43.2109 13.42C42.6375 13.42 42.1509 13.5867 41.7509 13.92C41.3642 14.2533 41.1242 14.7267 41.0309 15.34H45.3109ZM56.8351 19.1V22H55.0951C53.8551 22 52.8884 21.7 52.1951 21.1C51.5018 20.4867 51.1551 19.4933 51.1551 18.12V13.68H49.7951V10.84H51.1551V8.11996H54.5751V10.84H56.8151V13.68H54.5751V18.16C54.5751 18.4933 54.6551 18.7333 54.8151 18.88C54.9751 19.0267 55.2418 19.1 55.6151 19.1H56.8351Z"
          fill="#EFCB30"/>
    <path d="M74.64 7.95995V22H71.22V13.58L68.08 22H65.32L62.16 13.56V22H58.74V7.95995H62.78L66.72 17.68L70.62 7.95995H74.64ZM76.4194 16.4C76.4194 15.2533 76.6327 14.2467 77.0594 13.38C77.4994 12.5133 78.0927 11.8467 78.8394 11.38C79.586 10.9133 80.4194 10.68 81.3394 10.68C82.126 10.68 82.8127 10.84 83.3994 11.16C83.9994 11.48 84.4594 11.9 84.7794 12.42V10.84H88.1994V22H84.7794V20.42C84.446 20.94 83.9794 21.36 83.3794 21.68C82.7927 22 82.106 22.16 81.3194 22.16C80.4127 22.16 79.586 21.9267 78.8394 21.46C78.0927 20.98 77.4994 20.3067 77.0594 19.44C76.6327 18.56 76.4194 17.5467 76.4194 16.4ZM84.7794 16.42C84.7794 15.5667 84.5394 14.8933 84.0594 14.4C83.5927 13.9067 83.0194 13.66 82.3394 13.66C81.6594 13.66 81.0794 13.9067 80.5994 14.4C80.1327 14.88 79.8994 15.5467 79.8994 16.4C79.8994 17.2533 80.1327 17.9333 80.5994 18.44C81.0794 18.9333 81.6594 19.18 82.3394 19.18C83.0194 19.18 83.5927 18.9333 84.0594 18.44C84.5394 17.9467 84.7794 17.2733 84.7794 16.42ZM97.4736 10.72C98.7803 10.72 99.8203 11.1467 100.594 12C101.38 12.84 101.774 14 101.774 15.48V22H98.3736V15.94C98.3736 15.1933 98.1803 14.6133 97.7936 14.2C97.4069 13.7867 96.8869 13.58 96.2336 13.58C95.5803 13.58 95.0603 13.7867 94.6736 14.2C94.2869 14.6133 94.0936 15.1933 94.0936 15.94V22H90.6736V10.84H94.0936V12.32C94.4403 11.8267 94.9069 11.44 95.4936 11.16C96.0803 10.8667 96.7403 10.72 97.4736 10.72ZM110.37 19.1V22H108.63C107.39 22 106.423 21.7 105.73 21.1C105.037 20.4867 104.69 19.4933 104.69 18.12V13.68H103.33V10.84H104.69V8.11995H108.11V10.84H110.35V13.68H108.11V18.16C108.11 18.4933 108.19 18.7333 108.35 18.88C108.51 19.0267 108.777 19.1 109.15 19.1H110.37ZM115.695 7.19995V22H112.275V7.19995H115.695ZM128.694 16.24C128.694 16.56 128.674 16.8933 128.634 17.24H120.894C120.947 17.9333 121.167 18.4667 121.554 18.84C121.954 19.2 122.44 19.38 123.014 19.38C123.867 19.38 124.46 19.02 124.794 18.3H128.434C128.247 19.0333 127.907 19.6933 127.414 20.28C126.934 20.8667 126.327 21.3267 125.594 21.66C124.86 21.9933 124.04 22.16 123.134 22.16C122.04 22.16 121.067 21.9267 120.214 21.46C119.36 20.9933 118.694 20.3267 118.214 19.46C117.734 18.5933 117.494 17.58 117.494 16.42C117.494 15.26 117.727 14.2467 118.194 13.38C118.674 12.5133 119.34 11.8467 120.194 11.38C121.047 10.9133 122.027 10.68 123.134 10.68C124.214 10.68 125.174 10.9067 126.014 11.36C126.854 11.8133 127.507 12.46 127.974 13.3C128.454 14.14 128.694 15.12 128.694 16.24ZM125.194 15.34C125.194 14.7533 124.994 14.2867 124.594 13.94C124.194 13.5933 123.694 13.42 123.094 13.42C122.52 13.42 122.034 13.5867 121.634 13.92C121.247 14.2533 121.007 14.7267 120.914 15.34H125.194Z"
          fill="black"/>
    <path d="M0 21.6665H126.389L130 24.2665H3.61111L0 21.6665Z" fill="#EFCB30"/>
</svg>
