<svg width="13" height="7" viewBox="0 0 13 7" fill="none" xmlns="http://www.w3.org/2000/svg">
<rect x="0.766602" y="0.349365" width="4.12806" height="0.917346" rx="0.458673" fill="#262A2B"/>
<rect x="0.766113" y="6.08276" width="4.12806" height="0.917346" rx="0.458673" fill="#262A2B"/>
<rect width="4.12806" height="0.917346" rx="0.458673" transform="matrix(-1 0 0 1 12.2334 2.18384)" fill="#262A2B"/>
<rect width="3.21071" height="0.917346" rx="0.458673" transform="matrix(-1 0 0 1 12.2334 4.0188)" fill="#262A2B"/>
<rect x="5.81104" y="0.349365" width="2.29337" height="0.917346" rx="0.458673" fill="#262A2B"/>
<rect x="5.81104" y="6.08276" width="2.29337" height="0.917346" rx="0.458673" fill="#262A2B"/>
<rect width="2.29337" height="0.917346" rx="0.458673" transform="matrix(-1 0 0 1 7.1875 2.18384)" fill="#262A2B"/>
<rect width="3.66938" height="0.917346" rx="0.458673" transform="matrix(-1 0 0 1 8.56396 4.0188)" fill="#262A2B"/>
<rect x="9.02295" y="0.349365" width="3.21071" height="0.917346" rx="0.458673" fill="#262A2B"/>
<rect x="9.02295" y="6.08276" width="3.21071" height="0.917346" rx="0.458673" fill="#262A2B"/>
<rect width="3.21071" height="0.917346" rx="0.458673" transform="matrix(-1 0 0 1 3.97754 2.18384)" fill="#262A2B"/>
<rect width="3.21071" height="0.917346" rx="0.458673" transform="matrix(-1 0 0 1 3.97754 4.0188)" fill="#262A2B"/>
</svg>
