<svg width="575" height="594" viewBox="0 0 575 594" fill="none" xmlns="http://www.w3.org/2000/svg">
    <path fill-rule="evenodd" clip-rule="evenodd"
          d="M0 374.06H118.4V539.61H0V374.06V374.06ZM517.07 593.22L432.02 508.17L346.97 593.22L289.4 535.65L374.45 450.6L289.41 365.57L346.98 307.99L432.02 393.03L517.06 307.99L574.63 365.57L489.59 450.6L574.64 535.65L517.07 593.22ZM298.26 127.83H416.66V336.16L346.98 266.49L298.26 315.21V127.83V127.83ZM298.26 485.29V415.91L332.94 450.61L298.26 485.29ZM447.4 0H565.8V315.23L517.06 266.49L447.4 336.15V0V0ZM565.8 415.91V485.29L531.1 450.61L565.8 415.91ZM149.13 251.47H267.53V539.61H149.13V251.47V251.47Z"
          fill="black"/>
</svg>
