<svg width="13" height="7" viewBox="0 0 13 7" fill="none" xmlns="http://www.w3.org/2000/svg">
<path d="M9.58892 0.0388184C8.99005 0.0394068 8.40842 0.239356 7.93576 0.607091C7.46309 0.974826 7.12629 1.48944 6.97847 2.06978H0.858887V3.51473H1.33996V5.22899H2.11514V6.05377H2.89056V4.67899H3.66599V3.51473H7.00847C7.17581 4.06895 7.51707 4.55459 7.98179 4.89984C8.4465 5.2451 9.00999 5.43163 9.58892 5.43184C9.94307 5.43187 10.2938 5.36212 10.621 5.22661C10.9482 5.0911 11.2455 4.89247 11.4959 4.64205C11.7463 4.39163 11.9449 4.09432 12.0805 3.76713C12.216 3.43993 12.2857 3.08923 12.2857 2.73508C12.2856 2.01992 12.0014 1.33409 11.4957 0.82845C10.99 0.322806 10.3041 0.0387631 9.58892 0.0388184V0.0388184ZM9.58892 1.53511C9.74652 1.53509 9.90258 1.56611 10.0482 1.6264C10.1938 1.68669 10.3261 1.77508 10.4376 1.88651C10.549 1.99794 10.6374 2.13022 10.6977 2.27582C10.7581 2.42142 10.7891 2.57748 10.7891 2.73508C10.7892 2.8927 10.7581 3.0488 10.6978 3.19443C10.6375 3.34006 10.5491 3.47238 10.4376 3.58383C10.3262 3.69529 10.1939 3.78367 10.0482 3.84398C9.90262 3.90429 9.74654 3.93532 9.58892 3.93529C9.27068 3.93521 8.9655 3.80872 8.74051 3.58364C8.51553 3.35856 8.38916 3.05332 8.38921 2.73508C8.38923 2.41688 8.51562 2.11173 8.7406 1.8867C8.96558 1.66168 9.27072 1.5352 9.58892 1.53511V1.53511Z" fill="black"/>
</svg>
