<svg width="92" height="92" viewBox="0 0 92 92" fill="none" xmlns="http://www.w3.org/2000/svg">
<path d="M46 0C20.6 0 0 20.6 0 46C0 57.3 4.1 67.6 10.8 75.6C11.7 76.6 12.6 77.6 13.6 78.6C21.9 86.9 33.4 92 46 92C58.6 92 70.1 86.9 78.4 78.6C79.4 77.6 80.3 76.6 81.2 75.6C87.9 67.6 92 57.3 92 46C92 20.6 71.4 0 46 0ZM46 25C55.9 25 64 33.1 64 43C64 52.9 55.9 61 46 61C36.1 61 28 52.9 28 43C28 33.1 36.1 25 46 25ZM46 88C34.4 88 23.8 83.2 16.2 75.6C21.4 70.3 28.6 67 36.6 67H55.4C63.4 67 70.6 70.3 75.8 75.6C68.2 83.2 57.6 88 46 88Z" fill="black"/>
</svg>
