<svg width="39" height="20" viewBox="0 0 39 20" fill="none" xmlns="http://www.w3.org/2000/svg">
    <rect width="39" height="20" rx="10" fill="#373A3A"/>
    <circle cx="29" cy="10" r="5" fill="#262A2B"/>
    <path d="M29.0187 11.9984C29.0794 11.9946 29.1371 11.9706 29.1826 11.9302L31.9079 9.47751C31.9347 9.4535 31.9565 9.42443 31.9721 9.39197C31.9877 9.35951 31.9967 9.3243 31.9986 9.28834C32.0006 9.25239 31.9954 9.21641 31.9834 9.18247C31.9714 9.14852 31.9528 9.11727 31.9287 9.09052C31.9046 9.06377 31.8755 9.04203 31.843 9.02656C31.8105 9.01109 31.7752 9.00218 31.7393 9.00035C31.7033 8.99853 31.6674 9.00381 31.6335 9.01591C31.5995 9.02801 31.5684 9.04668 31.5417 9.07085L28.9995 11.3596L26.4573 9.07085C26.4307 9.04668 26.3995 9.02801 26.3656 9.01591C26.3317 9.00381 26.2957 8.99853 26.2597 9.00035C26.2238 9.00218 26.1885 9.01108 26.156 9.02655C26.1235 9.04203 26.0944 9.06377 26.0703 9.09052C26.0462 9.11727 26.0276 9.14852 26.0156 9.18247C26.0036 9.21641 25.9985 9.25239 26.0004 9.28834C26.0023 9.32429 26.0113 9.35951 26.0269 9.39197C26.0425 9.42443 26.0643 9.4535 26.0911 9.47751L28.8164 11.9302C28.8438 11.9546 28.8758 11.9732 28.9106 11.9849C28.9454 11.9966 28.9821 12.0012 29.0187 11.9984Z"
          fill="#F5F5F5"/>
    <path d="M11.404 10.8607C11.1904 10.8607 10.9367 10.9675 10.7765 11.0743L8.8408 12.3025C8.5204 12.5161 8.3335 12.8632 8.3335 13.237V14.5586C8.3335 15.1594 8.82745 15.6533 9.41485 15.6533H17.9188C18.5196 15.6533 19.0002 15.1594 19.0002 14.5586V13.237C19.0002 12.8632 18.8133 12.5161 18.4929 12.3025L16.5571 11.0743C16.4103 10.9675 16.1566 10.8607 15.943 10.8607H15.0085L15.0219 10.4335C15.1287 10.3667 15.2221 10.2866 15.3022 10.1932L15.7428 9.65916C15.903 9.45891 15.9964 9.20526 15.9964 8.95161V6.64205C15.9964 6.37505 15.903 6.1214 15.7294 5.92115L15.2755 5.38715C15.0619 5.1335 14.7549 5 14.4345 5H12.9126C12.5922 5 12.2851 5.14685 12.0715 5.38715L11.6176 5.92115C11.4441 6.1214 11.3506 6.37505 11.3506 6.64205V8.95161C11.3506 9.21861 11.4441 9.47226 11.6043 9.67251L12.0448 10.2065C12.1249 10.3 12.205 10.3801 12.3118 10.4335V10.8607H11.404ZM12.8725 10.8607H12.8592V10.0864L12.699 10.0196C12.6055 9.97956 12.5254 9.92616 12.472 9.85941L12.0315 9.32541C11.938 9.21861 11.898 9.08511 11.898 8.95161V6.64205C11.898 6.50855 11.9514 6.37505 12.0315 6.26825L12.4854 5.73425C12.5922 5.60075 12.7524 5.534 12.9259 5.534H14.4478C14.6214 5.534 14.7682 5.6141 14.8884 5.73425L15.3423 6.26825C15.4357 6.37505 15.4758 6.50855 15.4758 6.64205V8.95161C15.4758 9.08511 15.4224 9.21861 15.3423 9.32541L14.9017 9.85941C14.8483 9.92616 14.7682 9.99291 14.6748 10.0196L14.5146 10.0864L14.4745 10.8607H14.4612V11.3947H14.7282L14.9952 11.3813H15.9297C16.0098 11.3813 16.1566 11.4347 16.2768 11.5148L18.2125 12.743C18.3727 12.8498 18.4662 13.0234 18.4662 13.2236V14.5453C18.4662 14.8523 18.2125 15.106 17.9188 15.106H9.41485C9.1078 15.106 8.8675 14.8523 8.8675 14.5453V13.2236C8.8675 13.0234 8.96095 12.8498 9.12115 12.743L11.0569 11.5282C11.1771 11.4614 11.3239 11.3947 11.404 11.3947H12.3252V11.408H12.5922C12.7524 11.408 12.8725 11.2879 12.8725 11.1277V10.8607Z"
          fill="#F5F5F5"/>
</svg>
